<svg width="40" height="41" viewBox="0 0 40 41" fill="none" xmlns="http://www.w3.org/2000/svg">
<circle cx="20" cy="20.0527" r="20" fill="#92E3A9"/>
<g clip-path="url(#clip0_2054_2380)">
<path d="M22.8008 21.6527H22.1688L21.9448 21.4367C22.7288 20.5247 23.2008 19.3407 23.2008 18.0527C23.2008 15.1807 20.8728 12.8527 18.0008 12.8527C15.1288 12.8527 12.8008 15.1807 12.8008 18.0527C12.8008 20.9247 15.1288 23.2527 18.0008 23.2527C19.2888 23.2527 20.4728 22.7807 21.3848 21.9967L21.6008 22.2207V22.8527L25.6008 26.8447L26.7928 25.6527L22.8008 21.6527ZM18.0008 21.6527C16.0088 21.6527 14.4008 20.0447 14.4008 18.0527C14.4008 16.0607 16.0088 14.4527 18.0008 14.4527C19.9928 14.4527 21.6008 16.0607 21.6008 18.0527C21.6008 20.0447 19.9928 21.6527 18.0008 21.6527Z" fill="white"/>
</g>
<defs>
<clipPath id="clip0_2054_2380">
<rect width="19.2" height="19.2" fill="white" transform="translate(10.4004 10.4527)"/>
</clipPath>
</defs>
</svg>
